<svg width="81" height="22" viewBox="0 0 81 22" fill="none" xmlns="http://www.w3.org/2000/svg">
<path d="M10.15 2.05524H14.02L23.26 21.5416H17.98L16.15 17.4131H7.89997L6.12997 21.5416H0.969971L10.15 2.05524ZM11.95 7.72498L9.36997 13.7801H14.56L11.95 7.72498Z" fill="#01996D"/>
<path d="M24.8863 0.734131H29.3863V21.5416H24.8863V0.734131Z" fill="#01996D"/>
<path d="M32.6793 8.16535H37.1793V21.5416H32.6793V8.16535ZM32.3193 3.95433C32.3193 3.29377 32.5693 2.73414 33.0693 2.27542C33.5893 1.79836 34.2093 1.55982 34.9293 1.55982C35.6493 1.55982 36.2593 1.79836 36.7593 2.27542C37.2793 2.73414 37.5393 3.29377 37.5393 3.95433C37.5393 4.61488 37.2793 5.18369 36.7593 5.66076C36.2593 6.11947 35.6493 6.34883 34.9293 6.34883C34.2093 6.34883 33.5893 6.11947 33.0693 5.66076C32.5693 5.18369 32.3193 4.61488 32.3193 3.95433Z" fill="#01996D"/>
<path d="M38.8822 8.16535H43.7422L47.4322 17.248H47.4922L50.9122 8.16535H55.4422L49.6822 21.5416H44.9122L38.8822 8.16535Z" fill="#01996D"/>
<path d="M57.1422 8.16535H61.6422V21.5416H57.1422V8.16535ZM56.7822 3.95433C56.7822 3.29377 57.0322 2.73414 57.5322 2.27542C58.0522 1.79836 58.6722 1.55982 59.3922 1.55982C60.1122 1.55982 60.7222 1.79836 61.2222 2.27542C61.7422 2.73414 62.0022 3.29377 62.0022 3.95433C62.0022 4.61488 61.7422 5.18369 61.2222 5.66076C60.7222 6.11947 60.1122 6.34883 59.3922 6.34883C58.6722 6.34883 58.0522 6.11947 57.5322 5.66076C57.0322 5.18369 56.7822 4.61488 56.7822 3.95433Z" fill="#01996D"/>
<path d="M64.3351 14.8535C64.3351 13.7892 64.5451 12.8259 64.9651 11.9635C65.3851 11.1011 65.9551 10.3672 66.6751 9.76169C67.4151 9.13783 68.2751 8.66077 69.2551 8.33049C70.2551 8.00022 71.3151 7.83508 72.4351 7.83508C73.5551 7.83508 74.6051 8.00022 75.5851 8.33049C76.5851 8.66077 77.4451 9.13783 78.1651 9.76169C78.9051 10.3672 79.4851 11.1011 79.9051 11.9635C80.3251 12.8259 80.5351 13.7892 80.5351 14.8535C80.5351 15.9177 80.3251 16.881 79.9051 17.7434C79.4851 18.6058 78.9051 19.3489 78.1651 19.9727C77.4451 20.5782 76.5851 21.0461 75.5851 21.3764C74.6051 21.7067 73.5551 21.8718 72.4351 21.8718C71.3151 21.8718 70.2551 21.7067 69.2551 21.3764C68.2751 21.0461 67.4151 20.5782 66.6751 19.9727C65.9551 19.3489 65.3851 18.6058 64.9651 17.7434C64.5451 16.881 64.3351 15.9177 64.3351 14.8535ZM68.8351 14.8535C68.8351 15.8626 69.1451 16.6791 69.7651 17.303C70.4051 17.9269 71.2951 18.2388 72.4351 18.2388C73.5751 18.2388 74.4551 17.9269 75.0751 17.303C75.7151 16.6791 76.0351 15.8626 76.0351 14.8535C76.0351 13.8443 75.7151 13.0278 75.0751 12.4039C74.4551 11.78 73.5751 11.4681 72.4351 11.4681C71.2951 11.4681 70.4051 11.78 69.7651 12.4039C69.1451 13.0278 68.8351 13.8443 68.8351 14.8535Z" fill="#01996D"/>
</svg>
